<?xml version="1.0" ?><svg viewBox="0 0 32 32" fill="#6C307D" xmlns="http://www.w3.org/2000/svg"><title/><g data-name="education, test, exam, school, student, knowledge, study, examination, college, classroom" id="education_test_exam_school_student_knowledge_study_examination_college_classroom"><path d="M23,2H9A3,3,0,0,0,6,5V27a3,3,0,0,0,3,3H23a3,3,0,0,0,3-3V5A3,3,0,0,0,23,2Zm1,25a1,1,0,0,1-1,1H9a1,1,0,0,1-1-1V5A1,1,0,0,1,9,4H23a1,1,0,0,1,1,1Z"/><path d="M12.61,14.92A1,1,0,0,0,13,15a1,1,0,0,0,.92-.61l.6-1.39h3l.6,1.39A1,1,0,0,0,19,15a1,1,0,0,0,.39-.08,1,1,0,0,0,.53-1.31l-3-7A.89.89,0,0,0,16,6a.91.91,0,0,0-.92.61l-3,7A1,1,0,0,0,12.61,14.92ZM15.37,11,16,9.54,16.63,11Z"/><path d="M10,22h6a1,1,0,0,0,0-2H10a1,1,0,0,0,0,2Z"/><path d="M21,24H10a1,1,0,0,0,0,2H21a1,1,0,0,0,0-2Z"/></g></svg>