<?xml version="1.0" encoding="UTF-8"?>
<svg width="300px" height="300px" viewBox="0 0 300 300" version="1.1" xmlns="http://www.w3.org/2000/svg" xmlns:xlink="http://www.w3.org/1999/xlink">
    <!-- Generator: Sketch 48.2 (47327) - http://www.bohemiancoding.com/sketch -->
    <title>face copy</title>
    <desc>Created with Sketch.</desc>
    <defs></defs>
    <g id="Page-1" stroke="none" stroke-width="1" fill="none" fill-rule="evenodd">
        <g id="face-copy" fill="#FFFFFF" fill-rule="nonzero">
            <g id="Group" transform="translate(149.177538, 149.905462) rotate(-18.000000) translate(-149.177538, -149.905462) translate(0.677538, 1.905462)">
                <path d="M148.303614,0.207228916 C66.7542169,0.207228916 0.410843373,66.546988 0.410843373,148.096386 C0.410843373,229.645783 66.7542169,295.989157 148.303614,295.989157 C229.845783,295.989157 296.192771,229.645783 296.192771,148.096386 C296.192771,66.546988 229.849398,0.207228916 148.303614,0.207228916 Z M148.303614,278.180723 C76.5746988,278.180723 18.2156627,219.821687 18.2156627,148.092771 C18.2156627,142.110843 18.6566265,136.233735 19.4445783,130.46506 C28.646988,128.506024 49.0939759,116.874699 93.4,80.3361446 L112.191566,61.5373494 C112.191566,61.5373494 132.587952,101.025301 177.110843,120.218072 L148.83494,137.589157 C145.726506,139.092771 143.63012,141.785542 143.63012,144.89759 C143.63012,149.451807 148.090361,153.13494 153.714458,153.416867 C153.73253,153.416867 154.231325,153.46747 154.390361,153.46747 C154.437349,153.46747 154.480723,154.714458 154.527711,154.714458 L203.055422,158.036145 L203.246988,158.036145 C206.43494,158.036145 209.073494,153.727711 209.178313,150.514458 C209.275904,147.236145 206.70241,143.357831 203.427711,143.260241 L165.172289,141.8 L191.424096,125.516867 C214.23494,132.181928 242.250602,133.128916 275.86506,122.704819 C277.509639,130.942169 278.384337,139.418072 278.384337,148.136145 C278.384337,219.861446 220.036145,278.180723 148.303614,278.180723 Z" id="Shape"></path>
                <circle id="Oval" cx="71.1385542" cy="154.03494" r="21.2710843"></circle>
                <path d="M108.638554,218.271084 C112.028916,239.863855 132.287952,254.614458 153.873494,251.224096 C175.462651,247.826506 190.220482,227.578313 186.819277,205.985542 L108.638554,218.271084 Z" id="Shape"></path>
            </g>
        </g>
    </g>
</svg>